<svg width="25" height="25" viewBox="0 0 25 25" fill="none" xmlns="http://www.w3.org/2000/svg">
<path d="M4.8125 18.875C5.875 18.0625 7.0625 17.4217 8.375 16.9525C9.6875 16.4842 11.0625 16.25 12.5 16.25C13.9375 16.25 15.3125 16.4842 16.625 16.9525C17.9375 17.4217 19.125 18.0625 20.1875 18.875C20.9167 18.0208 21.4846 17.0521 21.8913 15.9688C22.2971 14.8854 22.5 13.7292 22.5 12.5C22.5 9.72917 21.5263 7.36958 19.5788 5.42125C17.6304 3.47375 15.2708 2.5 12.5 2.5C9.72917 2.5 7.37 3.47375 5.4225 5.42125C3.47417 7.36958 2.5 9.72917 2.5 12.5C2.5 13.7292 2.70333 14.8854 3.11 15.9688C3.51583 17.0521 4.08333 18.0208 4.8125 18.875ZM12.5 13.75C11.2708 13.75 10.2342 13.3283 9.39 12.485C8.54667 11.6408 8.125 10.6042 8.125 9.375C8.125 8.14583 8.54667 7.10917 9.39 6.265C10.2342 5.42167 11.2708 5 12.5 5C13.7292 5 14.7658 5.42167 15.61 6.265C16.4533 7.10917 16.875 8.14583 16.875 9.375C16.875 10.6042 16.4533 11.6408 15.61 12.485C14.7658 13.3283 13.7292 13.75 12.5 13.75ZM12.5 25C10.7708 25 9.14583 24.6717 7.625 24.015C6.10417 23.3592 4.78125 22.4688 3.65625 21.3438C2.53125 20.2188 1.64083 18.8958 0.985 17.375C0.328333 15.8542 0 14.2292 0 12.5C0 10.7708 0.328333 9.14583 0.985 7.625C1.64083 6.10417 2.53125 4.78125 3.65625 3.65625C4.78125 2.53125 6.10417 1.64042 7.625 0.98375C9.14583 0.327917 10.7708 0 12.5 0C14.2292 0 15.8542 0.327917 17.375 0.98375C18.8958 1.64042 20.2188 2.53125 21.3438 3.65625C22.4688 4.78125 23.3592 6.10417 24.015 7.625C24.6717 9.14583 25 10.7708 25 12.5C25 14.2292 24.6717 15.8542 24.015 17.375C23.3592 18.8958 22.4688 20.2188 21.3438 21.3438C20.2188 22.4688 18.8958 23.3592 17.375 24.015C15.8542 24.6717 14.2292 25 12.5 25Z" fill="#14121D"/>
</svg>
