<svg width="25" height="25" viewBox="0 0 25 25" fill="none" xmlns="http://www.w3.org/2000/svg">
<path d="M6.01041 18.0309C6.36739 18.3879 6.9575 18.3806 7.3072 18.0309L12.0208 13.3173L16.7344 18.0309C17.0841 18.3806 17.6742 18.3879 18.0312 18.0309C18.3882 17.6739 18.3882 17.0765 18.0385 16.7268L13.3249 12.0132L18.0312 7.30689C18.3809 6.95719 18.3882 6.36708 18.0312 6.0101C17.6742 5.65312 17.0768 5.65312 16.7271 6.00281L12.0208 10.7091L7.31448 6.00281C6.96479 5.65312 6.36739 5.65312 6.01041 6.0101C5.65343 6.36708 5.66071 6.95719 6.01041 7.30689L10.7167 12.0132L6.00312 16.7268C5.65343 17.0765 5.65343 17.6739 6.01041 18.0309Z" fill="#14121D"/>
</svg>
