<svg width="32" height="32" viewBox="0 0 32 32" fill="none" xmlns="http://www.w3.org/2000/svg">
<path fill-rule="evenodd" clip-rule="evenodd" d="M25.1349 8.60155C25.2489 8.48767 25.3394 8.35244 25.4011 8.2036C25.4629 8.05475 25.4947 7.89519 25.4948 7.73404C25.4949 7.57289 25.4633 7.41329 25.4017 7.26437C25.3401 7.11544 25.2498 6.98011 25.136 6.86609C25.0221 6.75206 24.8868 6.66159 24.738 6.59983C24.5891 6.53806 24.4296 6.50622 24.2684 6.50613C24.1073 6.50603 23.9477 6.53767 23.7988 6.59925C23.6498 6.66083 23.5145 6.75114 23.4005 6.86502L16 14.2656L8.60155 6.86502C8.37127 6.63474 8.05895 6.50537 7.73329 6.50537C7.40762 6.50537 7.0953 6.63474 6.86502 6.86502C6.63474 7.0953 6.50537 7.40762 6.50537 7.73329C6.50537 8.05895 6.63474 8.37127 6.86502 8.60155L14.2656 16L6.86502 23.3984C6.751 23.5124 6.66055 23.6477 6.59884 23.7967C6.53713 23.9457 6.50537 24.1054 6.50537 24.2666C6.50537 24.4279 6.53713 24.5875 6.59884 24.7365C6.66055 24.8855 6.751 25.0209 6.86502 25.1349C7.0953 25.3652 7.40762 25.4945 7.73329 25.4945C7.89454 25.4945 8.05421 25.4628 8.20319 25.4011C8.35217 25.3394 8.48753 25.2489 8.60155 25.1349L16 17.7344L23.4005 25.1349C23.6308 25.3649 23.943 25.494 24.2684 25.4938C24.5939 25.4936 24.906 25.3641 25.136 25.1338C25.3659 24.9035 25.495 24.5913 25.4948 24.2659C25.4946 23.9404 25.3652 23.6283 25.1349 23.3984L17.7344 16L25.1349 8.60155Z" fill="black"/>
</svg>
