<svg width="30" height="29" viewBox="0 0 30 29" fill="none" xmlns="http://www.w3.org/2000/svg">
<path d="M8.33584 5.82498V4.68529C8.33584 4.3781 8.07737 4.12886 7.7588 4.12886C7.44007 4.12886 7.18209 4.3781 7.18209 4.68529V15.9873C7.18209 16.0323 7.18909 16.0756 7.19933 16.1176C7.19867 17.0443 7.19834 17.9716 7.19806 18.8541H6.78835C5.9216 18.8541 5.21254 19.5102 5.16225 20.3342C5.16292 20.3844 5.16358 20.4224 5.16424 20.4472C5.16457 20.4623 5.16192 20.4764 5.16099 20.4912C5.19602 21.3287 5.91169 21.9998 6.7884 21.9998H7.19911C7.19944 22.417 7.2001 22.7922 7.20076 23.1127H6.70105C6.67109 23.1127 6.64245 23.1086 6.61315 23.1042C5.15895 23.0167 4.00288 21.8514 4.00288 20.4271C4.00288 20.3948 4.0068 20.3634 4.00773 20.331C3.99016 18.6786 4.00773 6.11124 4.00988 4.7435C4.00746 4.72417 4.00355 4.70537 4.00355 4.68556C4.00344 3.20469 5.25291 2 6.78868 2H7.71077H21.703H21.844C22.1626 2 22.4211 2.24909 22.4211 2.55643V4.68954H11.1399C10.0437 4.68885 9.05058 5.12477 8.33584 5.82498ZM9.65758 24.2211C9.65824 24.2713 9.65885 24.3097 9.65951 24.3342C9.65951 24.3492 9.65692 24.3637 9.65626 24.3787C9.69123 25.2157 10.407 25.8871 11.284 25.8871H25.7632V24.3492C25.7632 24.0416 26.0217 23.7926 26.3404 23.7926C26.6591 23.7926 26.9173 24.0416 26.9173 24.3492V26.4437C26.9173 26.7507 26.6591 27 26.3404 27H11.1968C11.1663 27 11.1377 26.9959 11.1087 26.9912C9.65466 26.9036 8.49843 25.7383 8.49843 24.3144C8.49843 24.2821 8.50251 24.2504 8.5035 24.2181C8.48576 22.5656 8.5035 9.99846 8.50548 8.63067C8.50317 8.61101 8.49909 8.59237 8.49909 8.5724C8.49909 7.09181 9.74857 5.88701 11.2843 5.88701H12.2064H26.1988H26.3401C26.6587 5.88701 26.9169 6.13609 26.9169 6.44344V22.17C26.9169 22.477 26.6587 22.7263 26.3401 22.7263C26.3367 22.7263 26.3332 22.7253 26.3299 22.7253C26.2876 22.7351 26.2437 22.7414 26.1981 22.7414H11.2837C10.4169 22.7413 9.70786 23.3974 9.65758 24.2211ZM11.6774 19.8743C11.6774 20.1816 11.9357 20.4309 12.2545 20.4309C12.5731 20.4309 12.8315 20.1816 12.8315 19.8743V8.57235C12.8315 8.265 12.5732 8.01592 12.2545 8.01592C11.9357 8.01592 11.6774 8.265 11.6774 8.57235V19.8743Z" fill="#14121D"/>
</svg>
