<svg width="42" height="43" viewBox="0 0 42 43" fill="none" xmlns="http://www.w3.org/2000/svg">
<mask id="path-1-inside-1_1502_218" fill="white">
<path d="M2.77197 21.6714C2.68049 25.3107 3.7002 28.8926 5.69751 31.9478C7.69483 35.003 10.5766 37.3891 13.9654 38.7936C17.3542 40.1981 21.092 40.5554 24.6892 39.8188C28.2864 39.0823 31.5753 37.2861 34.125 34.6656C36.6748 32.0451 38.3665 28.7224 38.9786 25.1329C39.5907 21.5434 39.0947 17.8543 37.5555 14.5489C36.0163 11.2435 33.5056 8.47589 30.3525 6.60861C27.1993 4.74133 23.5506 3.86143 19.8843 4.08418L20.0354 6.52646C23.2052 6.33387 26.3599 7.09463 29.0861 8.70908C31.8123 10.3235 33.983 12.7164 35.3138 15.5742C36.6446 18.4321 37.0735 21.6216 36.5443 24.7252C36.015 27.8287 34.5524 30.7014 32.3479 32.9671C30.1434 35.2328 27.2998 36.7857 24.1897 37.4226C21.0796 38.0594 17.8479 37.7505 14.9179 36.5362C11.988 35.3219 9.49636 33.2588 7.76949 30.6173C6.04261 27.9758 5.16098 24.8789 5.24007 21.7324L2.77197 21.6714Z"/>
</mask>
<path d="M2.77197 21.6714C2.68049 25.3107 3.7002 28.8926 5.69751 31.9478C7.69483 35.003 10.5766 37.3891 13.9654 38.7936C17.3542 40.1981 21.092 40.5554 24.6892 39.8188C28.2864 39.0823 31.5753 37.2861 34.125 34.6656C36.6748 32.0451 38.3665 28.7224 38.9786 25.1329C39.5907 21.5434 39.0947 17.8543 37.5555 14.5489C36.0163 11.2435 33.5056 8.47589 30.3525 6.60861C27.1993 4.74133 23.5506 3.86143 19.8843 4.08418L20.0354 6.52646C23.2052 6.33387 26.3599 7.09463 29.0861 8.70908C31.8123 10.3235 33.983 12.7164 35.3138 15.5742C36.6446 18.4321 37.0735 21.6216 36.5443 24.7252C36.015 27.8287 34.5524 30.7014 32.3479 32.9671C30.1434 35.2328 27.2998 36.7857 24.1897 37.4226C21.0796 38.0594 17.8479 37.7505 14.9179 36.5362C11.988 35.3219 9.49636 33.2588 7.76949 30.6173C6.04261 27.9758 5.16098 24.8789 5.24007 21.7324L2.77197 21.6714Z" stroke="#14121D" stroke-width="6" mask="url(#path-1-inside-1_1502_218)"/>
<path d="M14.7598 4.6983C14.0138 5.09621 14.0687 6.18334 14.8512 6.50533L20.9901 9.03165C21.6683 9.31076 22.4057 8.78963 22.3687 8.0574L22.0831 2.40919C22.0461 1.67696 21.2598 1.2315 20.6131 1.57641L14.7598 4.6983Z" fill="#14121D"/>
<path d="M16.094 28H18.542V15.964H16.74C16.6153 16.644 16.315 17.137 15.839 17.443C15.3743 17.749 14.734 17.902 13.918 17.902H13.697V19.5H16.094V28ZM28.393 18.106V16.202H22.12L21.678 22.747H23.871C23.9163 22.407 24.0296 22.1407 24.211 21.948C24.4036 21.744 24.6756 21.642 25.027 21.642C25.299 21.642 25.5256 21.6817 25.707 21.761C25.8883 21.8403 26.03 21.9763 26.132 22.169C26.2453 22.3617 26.3246 22.6223 26.37 22.951C26.4153 23.2797 26.438 23.6933 26.438 24.192C26.438 24.974 26.3246 25.5633 26.098 25.96C25.8826 26.3453 25.52 26.538 25.01 26.538C24.7493 26.538 24.5396 26.4757 24.381 26.351C24.2223 26.215 24.0976 26.0507 24.007 25.858C23.9276 25.654 23.8766 25.4387 23.854 25.212C23.8313 24.9853 23.82 24.77 23.82 24.566H21.474V24.889C21.474 25.229 21.5136 25.5973 21.593 25.994C21.6836 26.3793 21.8536 26.742 22.103 27.082C22.3523 27.4107 22.7093 27.677 23.174 27.881C23.65 28.085 24.2676 28.187 25.027 28.187C25.7976 28.187 26.4323 28.0907 26.931 27.898C27.4296 27.694 27.8206 27.3993 28.104 27.014C28.3986 26.6173 28.6026 26.147 28.716 25.603C28.8293 25.059 28.886 24.4527 28.886 23.784C28.886 23.308 28.8406 22.8433 28.75 22.39C28.6593 21.9253 28.5006 21.5117 28.274 21.149C28.0586 20.7863 27.7583 20.4973 27.373 20.282C26.999 20.0553 26.523 19.942 25.945 19.942C25.4236 19.942 24.9816 20.0157 24.619 20.163C24.2563 20.299 23.9616 20.5257 23.735 20.843H23.701L23.956 18.106H28.393Z" fill="#14121D"/>
</svg>
