<svg width="29" height="29" viewBox="0 0 29 29" fill="none" xmlns="http://www.w3.org/2000/svg">
<path d="M6.8125 20.875C7.875 20.0625 9.0625 19.4217 10.375 18.9525C11.6875 18.4842 13.0625 18.25 14.5 18.25C15.9375 18.25 17.3125 18.4842 18.625 18.9525C19.9375 19.4217 21.125 20.0625 22.1875 20.875C22.9167 20.0208 23.4846 19.0521 23.8913 17.9688C24.2971 16.8854 24.5 15.7292 24.5 14.5C24.5 11.7292 23.5263 9.36958 21.5788 7.42125C19.6304 5.47375 17.2708 4.5 14.5 4.5C11.7292 4.5 9.37 5.47375 7.4225 7.42125C5.47417 9.36958 4.5 11.7292 4.5 14.5C4.5 15.7292 4.70333 16.8854 5.11 17.9688C5.51583 19.0521 6.08333 20.0208 6.8125 20.875ZM14.5 15.75C13.2708 15.75 12.2342 15.3283 11.39 14.485C10.5467 13.6408 10.125 12.6042 10.125 11.375C10.125 10.1458 10.5467 9.10917 11.39 8.265C12.2342 7.42167 13.2708 7 14.5 7C15.7292 7 16.7658 7.42167 17.61 8.265C18.4533 9.10917 18.875 10.1458 18.875 11.375C18.875 12.6042 18.4533 13.6408 17.61 14.485C16.7658 15.3283 15.7292 15.75 14.5 15.75ZM14.5 27C12.7708 27 11.1458 26.6717 9.625 26.015C8.10417 25.3592 6.78125 24.4688 5.65625 23.3438C4.53125 22.2188 3.64083 20.8958 2.985 19.375C2.32833 17.8542 2 16.2292 2 14.5C2 12.7708 2.32833 11.1458 2.985 9.625C3.64083 8.10417 4.53125 6.78125 5.65625 5.65625C6.78125 4.53125 8.10417 3.64042 9.625 2.98375C11.1458 2.32792 12.7708 2 14.5 2C16.2292 2 17.8542 2.32792 19.375 2.98375C20.8958 3.64042 22.2188 4.53125 23.3438 5.65625C24.4688 6.78125 25.3592 8.10417 26.015 9.625C26.6717 11.1458 27 12.7708 27 14.5C27 16.2292 26.6717 17.8542 26.015 19.375C25.3592 20.8958 24.4688 22.2188 23.3438 23.3438C22.2188 24.4688 20.8958 25.3592 19.375 26.015C17.8542 26.6717 16.2292 27 14.5 27Z" fill="#14121D"/>
</svg>
