<svg width="149" height="32" viewBox="0 0 149 32" fill="none" xmlns="http://www.w3.org/2000/svg">
<path d="M47.835 23.544C47.835 23.6833 47.4423 23.7973 46.657 23.886C45.8843 23.962 45.1053 24 44.32 24C43.5473 24 43.0533 23.9683 42.838 23.905C42.6353 23.829 42.534 23.7087 42.534 23.544V15.374H39.893C39.7537 15.374 39.6333 15.1967 39.532 14.842C39.4307 14.4873 39.38 13.9617 39.38 13.265C39.38 12.5557 39.456 11.9223 39.608 11.365C39.76 10.795 39.9627 10.51 40.216 10.51H50.495C50.685 10.51 50.8117 10.6873 50.875 11.042C50.951 11.3967 50.989 11.9097 50.989 12.581C50.989 13.2523 50.9193 13.8857 50.78 14.481C50.6407 15.0763 50.4507 15.374 50.21 15.374H47.835V23.544ZM56.43 24.171C55.0113 24.171 54.017 23.8037 53.447 23.069C52.8896 22.3343 52.611 21.055 52.611 19.231V14.063C52.611 13.8097 52.9846 13.569 53.732 13.341C54.4793 13.1003 55.2646 12.98 56.088 12.98C57.19 12.98 57.741 13.265 57.741 13.835V18.661C57.741 19.6237 57.779 20.3267 57.855 20.77C57.931 21.2007 58.121 21.416 58.425 21.416C58.8303 21.416 59.033 21.245 59.033 20.903V14.063C59.033 13.797 59.4256 13.55 60.211 13.322C60.9963 13.094 61.8513 12.98 62.776 12.98C63.7006 12.98 64.163 13.227 64.163 13.721V23.506C64.163 23.6833 63.764 23.81 62.966 23.886C62.168 23.962 61.3826 24 60.61 24C59.8373 24 59.4446 23.8987 59.432 23.696L59.242 22.461H59.09C58.976 22.917 58.748 23.2907 58.406 23.582C58.2286 23.734 57.9626 23.8733 57.608 24C57.266 24.114 56.8733 24.171 56.43 24.171ZM77.5149 17.692V23.544C77.5149 23.6833 77.1539 23.7973 76.4319 23.886C75.7099 23.962 74.9626 24 74.1899 24C73.4299 24 72.9359 23.9683 72.7079 23.905C72.4926 23.829 72.3849 23.7087 72.3849 23.544V17.502C72.3849 16.932 72.3596 16.5583 72.3089 16.381C72.2709 16.2037 72.2329 16.0453 72.1949 15.906C72.1063 15.6653 71.9479 15.545 71.7199 15.545C71.3653 15.545 71.1879 15.716 71.1879 16.058V23.544C71.1879 23.6833 70.8269 23.7973 70.1049 23.886C69.3956 23.962 68.6546 24 67.8819 24C67.1219 24 66.6279 23.9683 66.3999 23.905C66.1719 23.829 66.0579 23.7087 66.0579 23.544V14.177C66.0579 13.911 66.4189 13.645 67.1409 13.379C67.8756 13.113 68.6483 12.98 69.4589 12.98C70.2696 12.98 70.7256 13.2143 70.8269 13.683L70.9979 14.519H71.1309C71.4983 13.7843 72.1316 13.2713 73.0309 12.98C73.3983 12.866 73.8036 12.809 74.2469 12.809C75.5263 12.809 76.3876 13.1953 76.8309 13.968C77.2869 14.728 77.5149 15.9693 77.5149 17.692ZM84.4091 19.706C84.4091 20.5293 84.8018 20.941 85.5871 20.941C86.0431 20.941 86.6384 20.789 87.3731 20.485C88.1078 20.1683 88.4941 20.01 88.5321 20.01C88.7728 20.01 89.0894 20.371 89.4821 21.093C89.8748 21.815 90.0711 22.347 90.0711 22.689C90.0711 23.183 89.5644 23.5567 88.5511 23.81C87.5378 24.0633 86.5434 24.19 85.5681 24.19C84.6054 24.19 83.7948 24.114 83.1361 23.962C82.4901 23.81 81.9581 23.62 81.5401 23.392C81.1348 23.1513 80.7738 22.86 80.4571 22.518C80.1531 22.176 79.9251 21.853 79.7731 21.549C79.6211 21.2323 79.5008 20.884 79.4121 20.504C79.2854 19.9467 79.2221 19.3703 79.2221 18.775C79.2221 16.4697 79.8238 14.88 81.0271 14.006C81.6224 13.5627 82.2874 13.2523 83.0221 13.075C83.7568 12.8977 84.6244 12.809 85.6251 12.809C88.8298 12.809 90.4321 13.9237 90.4321 16.153C90.4321 18.5217 88.6334 19.706 85.0361 19.706H84.4091ZM84.3711 16.932V18.186C84.7384 18.186 85.0361 18.0403 85.2641 17.749C85.5048 17.4577 85.6251 17.103 85.6251 16.685C85.6251 15.925 85.4288 15.545 85.0361 15.545C84.5928 15.545 84.3711 16.0073 84.3711 16.932ZM100.305 23.544C100.305 23.6833 99.9128 23.7973 99.1274 23.886C98.3548 23.962 97.5758 24 96.7904 24C96.0178 24 95.5238 23.9683 95.3084 23.905C95.1058 23.829 95.0044 23.7087 95.0044 23.544V15.374H92.3634C92.2241 15.374 92.1038 15.1967 92.0024 14.842C91.9011 14.4873 91.8504 13.9617 91.8504 13.265C91.8504 12.5557 91.9264 11.9223 92.0784 11.365C92.2304 10.795 92.4331 10.51 92.6864 10.51H102.965C103.155 10.51 103.282 10.6873 103.345 11.042C103.421 11.3967 103.459 11.9097 103.459 12.581C103.459 13.2523 103.39 13.8857 103.25 14.481C103.111 15.0763 102.921 15.374 102.68 15.374H100.305V23.544ZM108.023 24.171C106.871 24.171 105.965 23.8987 105.306 23.354C105.04 23.126 104.806 22.7903 104.603 22.347C104.413 21.9037 104.318 21.3843 104.318 20.789C104.318 20.1937 104.458 19.6743 104.736 19.231C105.028 18.7877 105.376 18.4457 105.781 18.205C106.187 17.9643 106.662 17.768 107.206 17.616C108.03 17.4007 108.935 17.293 109.923 17.293H110.55C110.55 16.7737 110.373 16.4063 110.018 16.191C109.866 16.1023 109.632 16.058 109.315 16.058C109.011 16.058 108.638 16.1403 108.194 16.305C107.764 16.4697 107.403 16.6407 107.111 16.818C106.82 16.9827 106.624 17.065 106.522 17.065C106.294 17.065 105.984 16.7673 105.591 16.172C105.199 15.564 105.002 15.013 105.002 14.519C105.002 14.3543 105.237 14.139 105.705 13.873C106.174 13.607 106.833 13.3663 107.681 13.151C108.543 12.923 109.379 12.809 110.189 12.809C111 12.809 111.697 12.8787 112.279 13.018C112.875 13.1447 113.356 13.303 113.723 13.493C114.103 13.683 114.42 13.9363 114.673 14.253C114.939 14.5697 115.136 14.8547 115.262 15.108C115.402 15.3613 115.503 15.6907 115.566 16.096C115.655 16.5647 115.699 17.141 115.699 17.825V23.544C115.699 23.6833 115.357 23.7973 114.673 23.886C114.002 23.962 113.331 24 112.659 24C112.001 24 111.57 23.981 111.367 23.943C111.177 23.905 111.063 23.8607 111.025 23.81C110.987 23.7593 110.956 23.6707 110.93 23.544L110.778 22.461H110.626C110.31 23.601 109.442 24.171 108.023 24.171ZM110.569 21.017V18.794C110.24 18.794 109.974 18.9333 109.771 19.212C109.569 19.4907 109.467 19.8073 109.467 20.162C109.467 20.998 109.657 21.416 110.037 21.416C110.202 21.416 110.329 21.378 110.417 21.302C110.519 21.2133 110.569 21.1183 110.569 21.017ZM122.731 10.054V23.544C122.731 23.6833 122.37 23.7973 121.648 23.886C120.926 23.962 120.178 24 119.406 24C118.646 24 118.152 23.9683 117.924 23.905C117.708 23.829 117.601 23.7087 117.601 23.544V10.396C117.601 10.1173 117.955 9.845 118.665 9.579C119.387 9.313 120.159 9.18 120.983 9.18C122.148 9.18 122.731 9.47133 122.731 10.054ZM129.625 19.706C129.625 20.5293 130.017 20.941 130.803 20.941C131.259 20.941 131.854 20.789 132.589 20.485C133.323 20.1683 133.71 20.01 133.748 20.01C133.988 20.01 134.305 20.371 134.698 21.093C135.09 21.815 135.287 22.347 135.287 22.689C135.287 23.183 134.78 23.5567 133.767 23.81C132.753 24.0633 131.759 24.19 130.784 24.19C129.821 24.19 129.01 24.114 128.352 23.962C127.706 23.81 127.174 23.62 126.756 23.392C126.35 23.1513 125.989 22.86 125.673 22.518C125.369 22.176 125.141 21.853 124.989 21.549C124.837 21.2323 124.716 20.884 124.628 20.504C124.501 19.9467 124.438 19.3703 124.438 18.775C124.438 16.4697 125.039 14.88 126.243 14.006C126.838 13.5627 127.503 13.2523 128.238 13.075C128.972 12.8977 129.84 12.809 130.841 12.809C134.045 12.809 135.648 13.9237 135.648 16.153C135.648 18.5217 133.849 19.706 130.252 19.706H129.625ZM129.587 16.932V18.186C129.954 18.186 130.252 18.0403 130.48 17.749C130.72 17.4577 130.841 17.103 130.841 16.685C130.841 15.925 130.644 15.545 130.252 15.545C129.808 15.545 129.587 16.0073 129.587 16.932ZM142.519 24.171C140.416 24.171 138.877 23.9683 137.902 23.563C137.408 23.3477 137.161 23.1387 137.161 22.936C137.161 22.4167 137.313 21.8087 137.617 21.112C137.921 20.4153 138.187 20.067 138.415 20.067C138.542 20.067 138.966 20.2063 139.688 20.485C140.423 20.7637 141.037 20.903 141.531 20.903C142.038 20.903 142.367 20.8713 142.519 20.808C142.684 20.7447 142.766 20.6243 142.766 20.447C142.766 20.257 142.639 20.1113 142.386 20.01C142.133 19.896 141.816 19.82 141.436 19.782C141.056 19.744 140.644 19.668 140.201 19.554C139.77 19.44 139.365 19.2943 138.985 19.117C138.605 18.9397 138.288 18.6483 138.035 18.243C137.782 17.825 137.655 17.3817 137.655 16.913C137.655 16.4317 137.668 16.077 137.693 15.849C137.718 15.6083 137.82 15.279 137.997 14.861C138.187 14.4303 138.447 14.082 138.776 13.816C139.118 13.55 139.637 13.3093 140.334 13.094C141.043 12.8787 141.835 12.771 142.709 12.771C143.583 12.771 144.311 12.8027 144.894 12.866C145.489 12.9167 145.952 12.9863 146.281 13.075C146.623 13.1637 146.902 13.265 147.117 13.379C147.484 13.569 147.668 13.778 147.668 14.006C147.668 14.5 147.491 15.07 147.136 15.716C146.781 16.362 146.496 16.685 146.281 16.685C146.078 16.685 145.629 16.5773 144.932 16.362C144.235 16.134 143.722 16.02 143.393 16.02C142.861 16.02 142.595 16.172 142.595 16.476C142.595 16.666 142.772 16.8117 143.127 16.913C143.494 17.0017 143.931 17.0967 144.438 17.198C144.945 17.2993 145.451 17.445 145.958 17.635C146.477 17.8123 146.914 18.1417 147.269 18.623C147.636 19.1043 147.82 19.7123 147.82 20.447C147.82 22.9297 146.053 24.171 142.519 24.171Z" fill="#3980C2"/>
<path d="M12.9447 11.4883C12.9447 11.4883 12.2132 11.6428 12.5993 10.3591C13.0635 8.81575 20.3236 5.73509 30.0742 7.31456L33.1767 20.1633L12.9447 11.4883Z" fill="white"/>
<path d="M33.1767 20.5375C33.126 20.5374 33.0759 20.5271 33.0293 20.5071L12.8836 11.8689C12.7057 11.8689 12.4918 11.8119 12.3309 11.6367C12.0744 11.3578 12.0459 10.9047 12.2416 10.2514C12.549 9.22982 14.7686 8.04479 17.7649 7.30284C21.482 6.38229 25.8748 6.25556 30.1339 6.94545C30.2066 6.95719 30.2743 6.99016 30.3284 7.04022C30.3825 7.09028 30.4206 7.15521 30.4379 7.22684L33.54 20.0758C33.5533 20.1308 33.5539 20.1881 33.5418 20.2433C33.5298 20.2986 33.5053 20.3504 33.4703 20.3948C33.4353 20.4393 33.3907 20.4752 33.3398 20.4999C33.2889 20.5246 33.2331 20.5375 33.1765 20.5375H33.1767ZM12.951 11.1089C13.0001 11.1109 13.0482 11.1231 13.0922 11.1448L32.6377 19.5257L29.7687 7.64503C25.6837 7.01442 21.494 7.14951 17.9437 8.02883C14.7737 8.81372 13.1192 9.92693 12.9567 10.4669C12.8258 10.9022 12.8617 11.0749 12.8767 11.1197C12.9009 11.1127 12.9259 11.1091 12.951 11.1089Z" fill="#650000"/>
<path d="M29.6237 7.83813C29.6237 7.83813 28.6547 9.73243 28.5723 11.0681L29.6237 7.83813Z" fill="white"/>
<path d="M29.6241 7.83813C29.522 8.10546 29.431 8.37603 29.3465 8.64754C29.2619 8.91905 29.185 9.19226 29.12 9.46643C29.055 9.7406 28.9978 10.0153 28.9608 10.2886C28.9237 10.5618 28.9038 10.8329 28.9133 11.0896C28.9151 11.1346 28.908 11.1795 28.8924 11.2218C28.8769 11.2641 28.8531 11.3029 28.8226 11.336C28.792 11.3691 28.7552 11.3958 28.7143 11.4147C28.6734 11.4336 28.6292 11.4442 28.5842 11.446C28.5392 11.4478 28.4943 11.4408 28.452 11.4252C28.4097 11.4096 28.3709 11.3859 28.3378 11.3553C28.3047 11.3248 28.278 11.288 28.2591 11.2471C28.2402 11.2062 28.2296 11.162 28.2278 11.117C28.2269 11.0939 28.2283 11.0708 28.2319 11.048C28.2825 10.736 28.367 10.4466 28.4636 10.166C28.5601 9.88539 28.6769 9.61787 28.7978 9.35377C28.9186 9.08967 29.052 8.83374 29.1892 8.58085C29.3263 8.32796 29.4709 8.08 29.6241 7.83813Z" fill="#650000"/>
<path d="M12.945 11.4882C12.945 11.4882 12.5921 11.4893 12.603 10.4396C12.6138 9.38981 10.3881 5.92744 2.21451 5.37378L0.945312 7.16396L7.5328 13.6392L12.945 11.4882Z" fill="white"/>
<path d="M7.53276 14.0132C7.43466 14.0132 7.34048 13.9746 7.27056 13.9058L0.683068 7.43082C0.619729 7.36852 0.580627 7.28572 0.57276 7.19722C0.564892 7.10873 0.588773 7.02033 0.640128 6.94783L1.90933 5.15766C1.94629 5.10534 1.99612 5.06344 2.05399 5.03598C2.11186 5.00853 2.17584 4.99644 2.23974 5.00091C6.72374 5.30491 9.30907 6.47911 10.6873 7.41106C12.2795 8.48741 12.9844 9.71005 12.9768 10.4436C12.9719 10.9019 13.0429 11.0817 13.0732 11.1371C13.1443 11.1632 13.2059 11.2102 13.2497 11.272C13.2935 11.3337 13.3175 11.4074 13.3186 11.4831C13.3196 11.5589 13.2977 11.6331 13.2556 11.6961C13.2135 11.7591 13.1532 11.8078 13.0828 11.8358L7.67089 13.9868C7.62691 14.0042 7.58005 14.0131 7.53276 14.0132ZM1.43376 7.12055L7.62168 13.2017L12.3424 11.3256C12.2628 11.0997 12.2258 10.8048 12.2296 10.4359C12.2339 10.0213 11.7055 9.00173 10.2689 8.03064C8.98816 7.16443 6.5877 6.07536 2.39839 5.76186L1.43376 7.12055Z" fill="#650000"/>
<path d="M1.80963 5.81201C2.38324 5.91594 2.94659 6.03906 3.50994 6.17301C4.07329 6.30696 4.63094 6.45801 5.18441 6.62901C5.46181 6.71052 5.73541 6.80666 6.0092 6.89824C6.28014 7.00008 6.55279 7.09565 6.81765 7.2125C7.34794 7.4405 7.87424 7.69187 8.3348 8.04128C7.8579 7.71524 7.32343 7.49161 6.78649 7.29192C6.5184 7.18932 6.24252 7.10762 5.96949 7.01984C5.69266 6.94251 5.41849 6.86062 5.13843 6.79336C4.58192 6.65181 4.02047 6.53002 3.45636 6.42438C2.89225 6.31874 2.32415 6.22374 1.75928 6.15002L1.80963 5.81201Z" fill="#650000"/>
<path d="M17.6953 9.14472C18.0945 8.9343 18.5071 8.75024 18.9303 8.59372C19.3552 8.43863 19.7879 8.30595 20.2267 8.19624C21.1043 7.97394 22.0022 7.83999 22.9026 7.76266C23.3533 7.72903 23.8046 7.70471 24.2562 7.69787C24.7076 7.69578 25.1591 7.69787 25.6096 7.72428C26.5098 7.7714 27.4091 7.86678 28.2897 8.05735C27.3916 8.00776 26.4969 7.98781 25.6033 7.99047C25.1566 7.99617 24.7103 7.99997 24.2649 8.02087C23.8195 8.03759 23.3747 8.06482 22.9306 8.10257C22.4862 8.13411 22.0438 8.18598 21.6025 8.24355C21.1603 8.29618 20.7226 8.37655 20.2843 8.45521L19.9565 8.52057L19.6305 8.59315C19.5212 8.61557 19.4129 8.64217 19.305 8.66915C19.1971 8.69613 19.0882 8.72197 18.9807 8.75161C18.5482 8.86428 18.123 9.00203 17.6957 9.14453" fill="#650000"/>
<path d="M14.8335 11.2961C14.8335 11.2961 20.5954 7.7406 29.5078 9.14204L33.6291 26.6082C33.6291 26.6082 25.8178 25.339 19.7281 28.0938L14.8335 11.2961Z" fill="#3FA7DE"/>
<path d="M16.8358 14.9538C16.4286 13.3718 29.113 11.2978 30.017 15.5471C30.929 19.8354 32.4585 25.563 32.4585 25.563C31.6713 25.4891 30.5754 25.4172 29.2908 25.4172C26.8778 25.4172 23.459 25.6832 20.3107 26.8789C20.3107 26.8789 17.2429 16.5355 16.8358 14.9538Z" fill="#3980C2"/>
<path d="M19.7281 28.4678C19.6472 28.4678 19.5684 28.4415 19.5037 28.393C19.439 28.3445 19.3918 28.2762 19.3691 28.1986L14.4744 11.4014C14.4515 11.3229 14.455 11.2389 14.4844 11.1626C14.5138 11.0862 14.5674 11.0215 14.637 10.9785C14.6978 10.9405 16.1521 10.0536 18.7279 9.33405C21.0943 8.67285 24.8955 8.0392 29.5659 8.77336C29.6393 8.78488 29.7075 8.818 29.762 8.86849C29.8165 8.91897 29.8547 8.98454 29.8718 9.05684L33.9938 26.5224C34.0079 26.5822 34.007 26.6447 33.9913 26.7041C33.9755 26.7635 33.9453 26.8181 33.9034 26.8631C33.8615 26.9081 33.8091 26.9421 33.751 26.962C33.6928 26.982 33.6306 26.9873 33.5699 26.9774C33.4928 26.9649 25.7959 25.7597 19.8829 28.4346C19.8342 28.4565 19.7814 28.4679 19.7281 28.4678ZM15.2754 11.4771L19.9684 27.5811C25.1491 25.401 31.2829 25.9324 33.14 26.1629L29.202 9.47427C21.6723 8.3622 16.4416 10.8512 15.2754 11.4771Z" fill="#650000"/>
<path d="M10.7457 11.1588C10.7457 11.1588 7.91474 7.83112 0.374023 6.5813L5.77895 22.4543C5.77895 22.4543 12.4896 24.0693 15.8041 27.4437L10.7457 11.1588Z" fill="#3FA7DE"/>
<path d="M14.0853 24.9422C11.2051 23.1028 7.74041 22.0518 6.47425 21.7061L3.55129 13.1229C3.55129 13.1229 2.86387 11.0625 4.99871 11.0686C7.87075 11.077 10.3616 14.1491 10.898 14.6809L14.0853 24.9422Z" fill="#3980C2"/>
<path d="M15.8042 27.8177C15.7545 27.8177 15.7053 27.8078 15.6595 27.7886C15.6137 27.7694 15.5721 27.7412 15.5373 27.7057C12.3377 24.4486 5.7576 22.8338 5.69148 22.8178C5.63029 22.8029 5.57383 22.7729 5.52734 22.7304C5.48084 22.6879 5.44581 22.6344 5.42548 22.5748L0.0199819 6.70182C-0.000869395 6.64064 -0.00549791 6.5751 0.00654831 6.5116C0.0185945 6.4481 0.0469033 6.3888 0.0887108 6.33951C0.130518 6.29022 0.184395 6.25261 0.245079 6.23036C0.305763 6.20811 0.37118 6.20198 0.434941 6.21257C8.02411 7.47018 10.9114 10.7764 11.0305 10.9164C11.0632 10.9549 11.0878 10.9996 11.1029 11.0479L16.1612 27.3322C16.1786 27.3882 16.1825 27.4474 16.1728 27.5052C16.1631 27.5629 16.1399 27.6176 16.1052 27.6648C16.0704 27.712 16.0251 27.7503 15.9728 27.7768C15.9206 27.8032 15.8628 27.817 15.8042 27.8171V27.8177ZM6.06749 22.1414C7.11705 22.4131 11.8663 23.7414 15.0467 26.2659L10.4134 11.3494C10.0258 10.9405 7.27019 8.24823 0.932361 7.05959L6.06749 22.1414Z" fill="#650000"/>
<path d="M14.8338 11.2962L19.7283 28.0933C19.7283 28.0933 18.4529 27.1908 17.1871 27.211C16.471 27.2224 15.8043 27.4431 15.8043 27.4431L10.7461 11.1582C10.7461 11.1582 11.2068 10.5432 12.3334 10.4444C13.4975 10.3424 14.8338 11.2962 14.8338 11.2962Z" fill="#3FA7DE"/>
<path d="M18.3158 26.4621C17.9614 26.3655 17.5961 26.315 17.2288 26.3118H17.1718C16.9182 26.317 16.6653 26.3398 16.4149 26.3802L12.4165 13.528C12.6133 13.4431 12.8229 13.3917 13.0367 13.376C13.0684 13.3733 13.102 13.3718 13.1364 13.3718C13.6644 13.3718 14.3059 13.6808 14.6893 13.9067L18.3158 26.4621Z" fill="#3980C2"/>
<path d="M19.7281 28.4678C19.6507 28.4678 19.5753 28.4438 19.5121 28.399C19.5007 28.3911 18.3151 27.5657 17.1928 27.5855C16.5468 27.5957 15.9274 27.7967 15.9213 27.7988C15.8741 27.8145 15.8242 27.8206 15.7747 27.8167C15.7251 27.8129 15.6768 27.7992 15.6325 27.7765C15.5883 27.7537 15.5491 27.7224 15.5171 27.6843C15.4851 27.6462 15.461 27.6022 15.4463 27.5547L10.3879 11.2698C10.3704 11.2133 10.3665 11.1535 10.3766 11.0952C10.3866 11.037 10.4104 10.9819 10.4459 10.9346C10.4687 10.904 11.0216 10.1845 12.2997 10.0726C13.5875 9.9586 14.9909 10.9502 15.05 10.9924C15.1183 11.0411 15.1683 11.1115 15.1917 11.1921L20.0865 27.9892C20.1026 28.045 20.1056 28.1037 20.0952 28.1608C20.0848 28.2179 20.0612 28.2717 20.0264 28.3182C19.9916 28.3646 19.9464 28.4023 19.8945 28.4282C19.8426 28.4542 19.7854 28.4678 19.7274 28.4678H19.7281ZM17.2287 26.8382C17.9237 26.8382 18.6052 27.0782 19.112 27.317L14.5126 11.5329C14.1944 11.3283 13.2051 10.7446 12.3656 10.8185C11.7284 10.8744 11.3491 11.113 11.1686 11.2631L16.0533 26.9887C16.3349 26.922 16.7472 26.8456 17.18 26.8386L17.2287 26.8382Z" fill="#650000"/>
<path d="M8.13505 13.7911C8.18368 13.8173 8.23053 13.8466 8.27527 13.879C8.41788 13.9895 8.52884 14.1357 8.59694 14.3027C8.74894 14.6871 8.75559 15.0057 8.57794 15.2303C8.53196 15.2886 8.46584 15.3223 8.39098 15.3443C8.23309 15.3916 8.06665 15.3008 7.91199 15.1391C7.77977 15.0022 7.68412 14.8342 7.63383 14.6506C7.54605 14.3314 7.56429 14.0679 7.71477 13.8806C7.78108 13.7979 7.87703 13.7561 8.00338 13.7614C8.01041 13.7614 8.02067 13.7662 8.02238 13.7561L8.13638 13.7907" fill="white"/>
<path d="M9.79298 16.1373C9.77759 16.143 9.78728 16.1641 9.7869 16.1786C9.77987 16.4235 9.70121 16.6078 9.5095 16.6939C9.41735 16.7353 9.30772 16.7414 9.17757 16.6889C9.05293 16.6388 8.95071 16.5399 8.86825 16.4159C8.75539 16.2458 8.70751 16.0828 8.70352 15.923C8.69744 15.6798 8.76052 15.4917 8.92582 15.3819C9.00885 15.3266 9.11259 15.3082 9.23723 15.3319C9.34363 15.3524 9.44243 15.4224 9.53249 15.5206C9.62917 15.6263 9.70165 15.7519 9.74491 15.8884C9.74795 15.8981 9.74643 15.9074 9.75669 15.9177C9.76936 15.9909 9.78146 16.0641 9.79298 16.1373Z" fill="white"/>
<path d="M5.49951 14.6919C5.50806 14.6638 5.50255 14.6284 5.5035 14.5969C5.51091 14.3119 5.81225 14.3045 6.0545 14.4949C6.41056 14.7749 6.67618 15.21 6.70582 15.5779C6.71703 15.7181 6.6929 15.8334 6.59315 15.8919C6.5143 15.9383 6.41664 15.9345 6.29808 15.8697C6.04918 15.7335 5.85709 15.5277 5.70452 15.2742C5.63345 15.1572 5.57837 15.0312 5.54074 14.8996C5.53846 14.8916 5.54074 14.8828 5.52991 14.8749L5.4997 14.6919" fill="white"/>
<path d="M9.16091 18.1067L9.05337 18.0742C8.93937 18.0309 8.83183 17.9509 8.72296 17.8772C8.58711 17.7852 8.45183 17.6895 8.31199 17.6192C8.14333 17.5333 7.95567 17.4915 7.7665 17.4977C7.62894 17.5008 7.50051 17.5253 7.35914 17.5194C7.24856 17.5148 7.13494 17.4993 7.01125 17.4311C6.79142 17.31 6.61111 17.0243 6.62099 16.8196C6.63258 16.585 6.67799 16.3733 6.77109 16.1926C6.84025 16.0579 6.91188 15.9251 7.03101 15.8389C7.20923 15.7097 7.43533 15.6718 7.71634 15.7439C7.93788 15.8009 8.14764 15.9359 8.34847 16.1263C8.54788 16.3191 8.72797 16.5309 8.88617 16.7586C9.05832 17.0013 9.22817 17.2445 9.35224 17.5034C9.41076 17.626 9.46111 17.748 9.46852 17.8644C9.48049 18.0465 9.38473 18.1361 9.20879 18.1141L9.16091 18.1073" fill="white"/>
<path d="M7.36484 14.5142C7.38213 14.6212 7.3751 14.7597 7.31335 14.8673C7.25635 14.9657 7.1642 15.0113 7.02341 14.9837C6.96844 14.9714 6.91642 14.9484 6.87027 14.9161C6.74597 14.8356 6.63603 14.7348 6.54499 14.618C6.2674 14.2595 6.14884 13.9116 6.17297 13.577C6.17807 13.5102 6.20475 13.4468 6.24897 13.3965C6.36582 13.257 6.55069 13.2791 6.77717 13.4596C6.96166 13.6064 7.09314 13.7888 7.19517 13.9898C7.27885 14.1547 7.33604 14.3316 7.36465 14.5142" fill="white"/>
</svg>
