<svg width="42" height="43" viewBox="0 0 42 43" fill="none" xmlns="http://www.w3.org/2000/svg">
<mask id="path-1-inside-1_1502_219" fill="white">
<path d="M38.8784 21.6704C38.9691 25.3098 37.9584 28.8916 35.9789 31.9468C33.9994 35.002 31.1433 37.3881 27.7847 38.7926C24.4261 40.1971 20.7216 40.5545 17.1564 39.8179C13.5913 39.0813 10.3317 37.2851 7.8047 34.6646C5.27768 32.0441 3.60104 28.7215 2.99438 25.1319C2.38772 21.5424 2.87934 17.8533 4.40484 14.5479C5.93034 11.2425 8.41859 8.47492 11.5437 6.60763C14.6687 4.74035 18.2849 3.86046 21.9185 4.0832L21.7688 6.52548C18.6272 6.3329 15.5007 7.09365 12.7987 8.7081C10.0968 10.3226 7.94546 12.7154 6.62651 15.5733C5.30757 18.4311 4.88252 21.6207 5.40703 24.7242C5.93154 27.8277 7.38117 30.7004 9.56603 32.9661C11.7509 35.2318 14.5691 36.7848 17.6515 37.4216C20.7339 38.0585 23.9368 37.7495 26.8407 36.5352C29.7445 35.3209 32.2139 33.2578 33.9254 30.6163C35.6369 27.9748 36.5107 24.8779 36.4323 21.7314L38.8784 21.6704Z"/>
</mask>
<path d="M38.8784 21.6704C38.9691 25.3098 37.9584 28.8916 35.9789 31.9468C33.9994 35.002 31.1433 37.3881 27.7847 38.7926C24.4261 40.1971 20.7216 40.5545 17.1564 39.8179C13.5913 39.0813 10.3317 37.2851 7.8047 34.6646C5.27768 32.0441 3.60104 28.7215 2.99438 25.1319C2.38772 21.5424 2.87934 17.8533 4.40484 14.5479C5.93034 11.2425 8.41859 8.47492 11.5437 6.60763C14.6687 4.74035 18.2849 3.86046 21.9185 4.0832L21.7688 6.52548C18.6272 6.3329 15.5007 7.09365 12.7987 8.7081C10.0968 10.3226 7.94546 12.7154 6.62651 15.5733C5.30757 18.4311 4.88252 21.6207 5.40703 24.7242C5.93154 27.8277 7.38117 30.7004 9.56603 32.9661C11.7509 35.2318 14.5691 36.7848 17.6515 37.4216C20.7339 38.0585 23.9368 37.7495 26.8407 36.5352C29.7445 35.3209 32.2139 33.2578 33.9254 30.6163C35.6369 27.9748 36.5107 24.8779 36.4323 21.7314L38.8784 21.6704Z" stroke="#14121D" stroke-width="6" mask="url(#path-1-inside-1_1502_219)"/>
<path d="M27.0004 4.69991C27.7424 5.0992 27.6882 6.18091 26.91 6.50404L20.8389 9.02495C20.1604 9.30668 19.4199 8.78509 19.4566 8.05135L19.7391 2.41523C19.7758 1.68149 20.5648 1.23655 21.2117 1.5847L27.0004 4.69991Z" fill="#14121D"/>
<path d="M16.094 29H18.542V16.964H16.74C16.6153 17.644 16.315 18.137 15.839 18.443C15.3743 18.749 14.734 18.902 13.918 18.902H13.697V20.5H16.094V29ZM28.393 19.106V17.202H22.12L21.678 23.747H23.871C23.9163 23.407 24.0296 23.1407 24.211 22.948C24.4036 22.744 24.6756 22.642 25.027 22.642C25.299 22.642 25.5256 22.6817 25.707 22.761C25.8883 22.8403 26.03 22.9763 26.132 23.169C26.2453 23.3617 26.3246 23.6223 26.37 23.951C26.4153 24.2797 26.438 24.6933 26.438 25.192C26.438 25.974 26.3246 26.5633 26.098 26.96C25.8826 27.3453 25.52 27.538 25.01 27.538C24.7493 27.538 24.5396 27.4757 24.381 27.351C24.2223 27.215 24.0976 27.0507 24.007 26.858C23.9276 26.654 23.8766 26.4387 23.854 26.212C23.8313 25.9853 23.82 25.77 23.82 25.566H21.474V25.889C21.474 26.229 21.5136 26.5973 21.593 26.994C21.6836 27.3793 21.8536 27.742 22.103 28.082C22.3523 28.4107 22.7093 28.677 23.174 28.881C23.65 29.085 24.2676 29.187 25.027 29.187C25.7976 29.187 26.4323 29.0907 26.931 28.898C27.4296 28.694 27.8206 28.3993 28.104 28.014C28.3986 27.6173 28.6026 27.147 28.716 26.603C28.8293 26.059 28.886 25.4527 28.886 24.784C28.886 24.308 28.8406 23.8433 28.75 23.39C28.6593 22.9253 28.5006 22.5117 28.274 22.149C28.0586 21.7863 27.7583 21.4973 27.373 21.282C26.999 21.0553 26.523 20.942 25.945 20.942C25.4236 20.942 24.9816 21.0157 24.619 21.163C24.2563 21.299 23.9616 21.5257 23.735 21.843H23.701L23.956 19.106H28.393Z" fill="#14121D"/>
</svg>
