<svg width="24" height="18" viewBox="0 0 24 18" fill="none" xmlns="http://www.w3.org/2000/svg">
<path d="M4.2583 1.86328C4.2583 1.03485 4.92987 0.363281 5.7583 0.363281H21.7583C22.5867 0.363281 23.2583 1.03485 23.2583 1.86328C23.2583 2.69171 22.5867 3.36328 21.7583 3.36328H5.7583C4.92987 3.36328 4.2583 2.69171 4.2583 1.86328Z" fill="#14121D"/>
<path d="M4.2583 8.86328C4.2583 8.03485 4.92987 7.36328 5.7583 7.36328H21.7583C22.5867 7.36328 23.2583 8.03485 23.2583 8.86328C23.2583 9.69171 22.5867 10.3633 21.7583 10.3633H5.7583C4.92987 10.3633 4.2583 9.69171 4.2583 8.86328Z" fill="#14121D"/>
<path d="M4.2583 15.8633C4.2583 15.0349 4.92987 14.3633 5.7583 14.3633H21.7583C22.5867 14.3633 23.2583 15.0349 23.2583 15.8633C23.2583 16.6917 22.5867 17.3633 21.7583 17.3633H5.7583C4.92987 17.3633 4.2583 16.6917 4.2583 15.8633Z" fill="#14121D"/>
<path d="M0.258301 1.86328C0.258301 1.03485 0.929874 0.363281 1.7583 0.363281C2.58673 0.363281 3.2583 1.03485 3.2583 1.86328C3.2583 2.69171 2.58673 3.36328 1.7583 3.36328C0.929874 3.36328 0.258301 2.69171 0.258301 1.86328Z" fill="#14121D"/>
<path d="M0.258301 8.86328C0.258301 8.03485 0.929874 7.36328 1.7583 7.36328C2.58673 7.36328 3.2583 8.03485 3.2583 8.86328C3.2583 9.69171 2.58673 10.3633 1.7583 10.3633C0.929874 10.3633 0.258301 9.69171 0.258301 8.86328Z" fill="#14121D"/>
<path d="M0.258301 15.8633C0.258301 15.0349 0.929874 14.3633 1.7583 14.3633C2.58673 14.3633 3.2583 15.0349 3.2583 15.8633C3.2583 16.6917 2.58673 17.3633 1.7583 17.3633C0.929874 17.3633 0.258301 16.6917 0.258301 15.8633Z" fill="#14121D"/>
</svg>
